<?xml version="1.0" encoding="UTF-8"?><svg id="_レイヤー_2" xmlns="http://www.w3.org/2000/svg" xmlns:xlink="http://www.w3.org/1999/xlink" viewBox="0 0 238.27 89.65"><defs><style>.cls-1{fill:#040000;}.cls-2{clip-path:url(#clippath-1);}.cls-3{clip-path:url(#clippath);}.cls-4{fill:none;}.cls-5{fill:#231815;}</style><clipPath id="clippath"><path class="cls-4" d="M217.13,74.82c0,2.49-2.01,4.5-4.5,4.5s-4.5-2.01-4.5-4.5,2.01-4.5,4.5-4.5,4.5,2.01,4.5,4.5Zm-4.5-9c-4.97,0-9,4.03-9,9s4.03,9,9,9,9-4.03,9-9-4.03-9-9-9Z"/></clipPath><clipPath id="clippath-1"><path class="cls-4" d="M158.84,24.68c0,4.14-3.36,7.5-7.5,7.5s-7.5-3.36-7.5-7.5,3.36-7.5,7.5-7.5,7.5,3.36,7.5,7.5Zm-7.5-15c-8.28,0-15,6.72-15,15s6.72,15,15,15,15-6.72,15-15-6.72-15-15-15Z"/></clipPath></defs><g id="_歯車"><g><g><path class="cls-5" d="M26.35,8.15h-9.5V40.2h-7.4V8.15H0V1.75H26.35v6.4Z"/><path class="cls-5" d="M51.35,33.6c0,2.45,.1,4.9,.4,6.6h-6.65l-.45-2.9h-.15c-1.6,2.2-4.3,3.45-7.4,3.45-5.15,0-8.35-3.85-8.35-8.35,0-7.15,6.35-10.5,15.2-10.5,0-2.75-.95-4.85-5-4.85-2.55,0-5.05,.8-6.85,1.9l-1.4-4.8c1.85-1.1,5.3-2.35,9.65-2.35,8.65,0,11,5.5,11,11.6v10.2Zm-7.2-6.95c-4,0-8.15,.95-8.15,5,0,2.65,1.65,3.8,3.5,3.8,1.75,0,4.65-1.25,4.65-4.8v-4Z"/><path class="cls-5" d="M82.85,40.2h-8.8l-6.5-11.9-1.95,2.65v9.25h-7.4V0h7.4V24.5h.15c.6-1.25,1.2-2.4,1.85-3.45l5.55-8.7h8.6l-9.1,11.45,10.2,16.4Z"/><path class="cls-5" d="M106.95,39.1c-2.3,1-5.55,1.6-9,1.6-8.6,0-13.5-5.4-13.5-14.05,0-8,4.6-14.9,12.75-14.9,6.75,0,11.15,4.8,11.15,13.8,0,1.1-.05,2.15-.2,2.95h-16.65c.2,4.75,3.6,6.65,7.6,6.65,2.75,0,4.9-.5,6.8-1.15l1.05,5.1Zm-5.45-15.75c.05-2.9-1.1-6.45-4.75-6.45s-5.05,3.7-5.25,6.45h10Z"/><path class="cls-5" d="M135.3,40.2h-21.15V1.75h7.4V33.95h13.75v6.25Z"/><path class="cls-5" d="M193.85,12.4c-.15,2-.25,4.45-.25,8.3v15.7c0,5.45-.5,15.55-14.05,15.55-3.25,0-6.6-.65-8.8-1.9l1.45-5.65c1.65,.9,4.25,1.8,7.2,1.8,4.15,0,6.9-2.35,6.9-7.7v-2.05h-.1c-1.4,2.2-3.9,3.55-6.95,3.55-6.6,0-10.75-5.95-10.75-13.55,0-9.2,5.35-14.65,11.5-14.65,3.5,0,5.75,1.7,7,3.9h.1l.3-3.3h6.45Zm-7.65,10.8c0-3.55-2.15-5.6-4.65-5.6-3.35,0-5.6,3.4-5.6,8.65,0,4.85,2.05,8.15,5.55,8.15,1.7,0,4.7-1.1,4.7-5.8v-5.4Z"/><path class="cls-5" d="M14.5,82.6H1.6v-23.07H14.02v3.72H6.04v5.58h7.53v3.63H6.04v6.42H14.5v3.72Z"/><path class="cls-5" d="M32.11,82.6h-4.44v-9.75c0-2.04-.66-3.66-2.55-3.66-1.2,0-2.85,.93-2.85,3.48v9.93h-4.44v-11.67c0-1.95-.06-3.54-.12-5.01h3.84l.21,2.25h.09c.75-1.23,2.4-2.61,4.83-2.61,3.06,0,5.43,2.13,5.43,6.81v10.23Z"/><path class="cls-5" d="M50.53,65.92c-.09,1.2-.15,2.67-.15,4.98v9.42c0,3.27-.3,9.33-8.43,9.33-1.95,0-3.96-.39-5.28-1.14l.87-3.39c.99,.54,2.55,1.08,4.32,1.08,2.49,0,4.14-1.41,4.14-4.62v-1.23h-.06c-.84,1.32-2.34,2.13-4.17,2.13-3.96,0-6.45-3.57-6.45-8.13,0-5.52,3.21-8.79,6.9-8.79,2.1,0,3.45,1.02,4.2,2.34h.06l.18-1.98h3.87Zm-4.59,6.48c0-2.13-1.29-3.36-2.79-3.36-2.01,0-3.36,2.04-3.36,5.19,0,2.91,1.23,4.89,3.33,4.89,1.02,0,2.82-.66,2.82-3.48v-3.24Z"/><path class="cls-5" d="M56.74,63.7c-1.41,0-2.37-1.02-2.37-2.37s.99-2.37,2.37-2.37,2.4,.99,2.4,2.37-1.02,2.37-2.4,2.37Zm2.25,18.9h-4.44v-16.71h4.44v16.71Z"/><path class="cls-5" d="M77.41,82.6h-4.44v-9.75c0-2.04-.66-3.66-2.55-3.66-1.2,0-2.85,.93-2.85,3.48v9.93h-4.44v-11.67c0-1.95-.06-3.54-.12-5.01h3.84l.21,2.25h.09c.75-1.23,2.4-2.61,4.83-2.61,3.06,0,5.43,2.13,5.43,6.81v10.23Z"/><path class="cls-5" d="M94.12,81.94c-1.38,.6-3.33,.96-5.4,.96-5.16,0-8.1-3.24-8.1-8.43,0-4.8,2.76-8.94,7.65-8.94,4.05,0,6.69,2.88,6.69,8.28,0,.66-.03,1.29-.12,1.77h-9.99c.12,2.85,2.16,3.99,4.56,3.99,1.65,0,2.94-.3,4.08-.69l.63,3.06Zm-3.27-9.45c.03-1.74-.66-3.87-2.85-3.87s-3.03,2.22-3.15,3.87h6Z"/><path class="cls-5" d="M110.8,81.94c-1.38,.6-3.33,.96-5.4,.96-5.16,0-8.1-3.24-8.1-8.43,0-4.8,2.76-8.94,7.65-8.94,4.05,0,6.69,2.88,6.69,8.28,0,.66-.03,1.29-.12,1.77h-9.99c.12,2.85,2.16,3.99,4.56,3.99,1.65,0,2.94-.3,4.08-.69l.63,3.06Zm-3.27-9.45c.03-1.74-.66-3.87-2.85-3.87s-3.03,2.22-3.15,3.87h6Z"/><path class="cls-5" d="M124,69.85c-.33-.06-.69-.09-1.14-.09-2.01,0-3.54,1.35-3.54,4.2v8.64h-4.44v-11.49c0-2.07-.06-3.72-.12-5.22h3.81l.18,2.91h.12c.78-2.16,2.58-3.27,4.14-3.27,.42,0,.69,.03,.99,.09v4.23Z"/><path class="cls-5" d="M128.8,63.7c-1.41,0-2.37-1.02-2.37-2.37s.99-2.37,2.37-2.37,2.4,.99,2.4,2.37-1.02,2.37-2.4,2.37Zm2.25,18.9h-4.44v-16.71h4.44v16.71Z"/><path class="cls-5" d="M149.47,82.6h-4.44v-9.75c0-2.04-.66-3.66-2.55-3.66-1.2,0-2.85,.93-2.85,3.48v9.93h-4.44v-11.67c0-1.95-.06-3.54-.12-5.01h3.84l.21,2.25h.09c.75-1.23,2.4-2.61,4.83-2.61,3.06,0,5.43,2.13,5.43,6.81v10.23Z"/><path class="cls-5" d="M167.89,65.92c-.09,1.2-.15,2.67-.15,4.98v9.42c0,3.27-.3,9.33-8.43,9.33-1.95,0-3.96-.39-5.28-1.14l.87-3.39c.99,.54,2.55,1.08,4.32,1.08,2.49,0,4.14-1.41,4.14-4.62v-1.23h-.06c-.84,1.32-2.34,2.13-4.17,2.13-3.96,0-6.45-3.57-6.45-8.13,0-5.52,3.21-8.79,6.9-8.79,2.1,0,3.45,1.02,4.2,2.34h.06l.18-1.98h3.87Zm-4.59,6.48c0-2.13-1.29-3.36-2.79-3.36-2.01,0-3.36,2.04-3.36,5.19,0,2.91,1.23,4.89,3.33,4.89,1.02,0,2.82-.66,2.82-3.48v-3.24Z"/><path class="cls-5" d="M189.55,70.27c2.58,.66,4.5,2.7,4.5,5.64,0,1.8-.75,3.54-2.1,4.74-1.56,1.41-4.14,2.16-8.25,2.16-2.19,0-3.84-.15-4.92-.3v-22.68c1.32-.27,3.6-.48,5.85-.48,2.79,0,4.77,.36,6.36,1.47,1.38,.93,2.25,2.46,2.25,4.35,0,2.1-1.23,4.05-3.69,4.98v.12Zm-4.74-1.35c2.52,0,4.02-1.35,4.02-3.24,0-2.28-1.71-3.03-3.69-3.03-.96,0-1.56,.06-1.95,.15v6.12h1.62Zm-1.62,10.44c.45,.09,.99,.12,1.77,.12,2.4,0,4.44-1.08,4.44-3.69s-2.28-3.63-4.56-3.63h-1.65v7.2Z"/><path class="cls-5" d="M201.88,82.6h-4.44v-24.12h4.44v24.12Z"/><path class="cls-5" d="M238.27,65.92c-.09,1.2-.15,2.67-.15,4.98v9.42c0,3.27-.3,9.33-8.43,9.33-1.95,0-3.96-.39-5.28-1.14l.87-3.39c.99,.54,2.55,1.08,4.32,1.08,2.49,0,4.14-1.41,4.14-4.62v-1.23h-.06c-.84,1.32-2.34,2.13-4.17,2.13-3.96,0-6.45-3.57-6.45-8.13,0-5.52,3.21-8.79,6.9-8.79,2.1,0,3.45,1.02,4.2,2.34h.06l.18-1.98h3.87Zm-4.59,6.48c0-2.13-1.29-3.36-2.79-3.36-2.01,0-3.36,2.04-3.36,5.19,0,2.91,1.23,4.89,3.33,4.89,1.02,0,2.82-.66,2.82-3.48v-3.24Z"/></g><g class="cls-3"><path class="cls-1" d="M222.53,74.82c0,.69-1.85,1.16-2,1.8s1.31,1.89,1.02,2.49-2.17,.23-2.59,.75,.37,2.27-.16,2.69-2.05-.73-2.66-.44-.65,2.2-1.31,2.35-1.51-1.55-2.2-1.55-1.56,1.7-2.2,1.55-.71-2.06-1.31-2.35-2.13,.86-2.66,.44,.26-2.16-.16-2.69-2.29-.14-2.59-.75,1.17-1.83,1.02-2.49-2-1.12-2-1.8,1.85-1.16,2-1.8-1.31-1.89-1.02-2.49,2.17-.23,2.59-.75-.37-2.27,.16-2.69,2.05,.73,2.66,.44,.65-2.2,1.31-2.35,1.51,1.55,2.2,1.55,1.56-1.7,2.2-1.55,.71,2.06,1.31,2.35,2.13-.86,2.66-.44-.26,2.16,.16,2.69,2.29,.14,2.59,.75-1.17,1.83-1.02,2.49,2,1.12,2,1.8Z"/></g><g class="cls-2"><path class="cls-1" d="M167.84,24.68c0,1.15-3.09,1.93-3.34,3.01s2.19,3.16,1.7,4.16-3.62,.38-4.31,1.26,.61,3.78-.27,4.48-3.41-1.22-4.43-.73-1.08,3.67-2.19,3.92-2.52-2.59-3.67-2.59-2.6,2.83-3.67,2.59-1.19-3.44-2.19-3.92-3.56,1.43-4.43,.73,.43-3.61-.27-4.48-3.82-.24-4.31-1.26,1.96-3.05,1.7-4.15-3.34-1.86-3.34-3.01,3.09-1.93,3.34-3.01-2.19-3.16-1.7-4.16,3.62-.38,4.31-1.26-.61-3.78,.27-4.48,3.41,1.22,4.43,.73,1.08-3.67,2.19-3.92,2.52,2.59,3.67,2.59,2.6-2.83,3.67-2.59,1.19,3.44,2.19,3.92,3.56-1.43,4.43-.73-.43,3.61,.27,4.48,3.82,.24,4.31,1.26-1.96,3.05-1.7,4.15,3.34,1.86,3.34,3.01Z"/></g></g></g></svg>